<?xml version="1.0" encoding="utf-8"?>
<!-- Generator: Adobe Illustrator 19.2.1, SVG Export Plug-In . SVG Version: 6.00 Build 0)  -->
<!DOCTYPE svg PUBLIC "-//W3C//DTD SVG 1.1//EN" "http://www.w3.org/Graphics/SVG/1.1/DTD/svg11.dtd">
<svg version="1.1" id="Layer_1" xmlns="http://www.w3.org/2000/svg" xmlns:xlink="http://www.w3.org/1999/xlink" x="0px" y="0px"
	 width="440px" height="120px" viewBox="0 0 440 120" enable-background="new 0 0 440 120" xml:space="preserve">
<g>
	<g>
		<path fill="#FF4040" d="M164.6,37.5h8.9v51h-8.9V37.5z"/>
		<path fill="#FF4040" d="M145.4,77.1l-4.9-6.8l-0.7-1.1c1.8-0.5,3.4-1.2,4.9-2.1s2.8-2,3.8-3.3c1.1-1.3,1.9-2.8,2.5-4.4
			c0.6-1.7,0.9-3.6,0.9-5.6v-0.1c0-2.2-0.4-4.3-1.1-6.1c-0.7-1.8-1.8-3.5-3.1-4.9c-1.7-1.6-3.7-2.9-6.2-3.8
			c-2.5-0.9-5.3-1.3-8.5-1.3h-22.7v51h8.9V70.7h11.3l3.1,4.5l4.8,6.7c0.8,1.1,5,6.6,15.2,6.6V80C147.9,80,145.7,77.5,145.4,77.1z
			 M119.1,45.6h13.1c3.4,0,6,0.7,7.8,2.2c1.9,1.4,2.8,3.5,2.8,6.3v0.1c0,2.6-1,4.7-2.9,6.3c-1.9,1.5-4.5,2.3-7.7,2.3H119L119.1,45.6
			L119.1,45.6z"/>
		<path fill="#FF4040" d="M89.4,37.5v21.2H64.9V37.5H56c0,22.5-15.2,37-15.2,37c-2.2,2-4.4,3.6-6.6,4.8s-4.9,1.8-8,1.8
			c-2.4,0-4.6-0.5-6.7-1.4c-2.1-0.9-3.9-2.2-5.4-3.9s-2.7-3.6-3.5-5.8c-0.8-2.2-1.2-4.5-1.2-7v-0.2c0-2.5,0.4-4.8,1.2-7
			c0.8-2.2,2-4.1,3.5-5.7c1.5-1.7,3.3-3,5.4-3.9c2-0.9,4.3-1.4,6.7-1.4c2.9,0,5.5,0.5,7.8,1.7s4.5,2.7,6.5,4.6l5.8-6.6
			c-1.3-1.2-2.5-2.2-3.9-3.2c-1.3-1-2.8-1.8-4.4-2.5s-3.4-1.2-5.3-1.6c-1.9-0.4-4.1-0.6-6.4-0.6c-3.8,0-7.4,0.7-10.6,2.1
			c-3.2,1.4-6,3.3-8.3,5.7c-2.4,2.4-4.2,5.2-5.5,8.4C0.6,55.9,0,59.4,0,63v0.2c0,3.7,0.7,7.1,2,10.3c1.4,3.2,3.2,5.9,5.5,8.3
			c2.3,2.4,5,4.2,8.2,5.6c3.1,1.3,6.6,2,10.3,2c2.4,0,4.6-0.2,6.5-0.7c1.9-0.4,3.7-1,5.4-1.8c1.6-0.8,3.2-1.7,4.6-2.8
			c1.4-1.1,2.8-2.4,4.1-3.8c3.9-4.1,7-8.4,9.4-12.6v20.8h8.9V67h24.5v21.5h8.9v-51H89.4z"/>
	</g>
	<g>
		<path fill="#FF4040" d="M280.2,46H264v-8.3h41.4V46h-16.2v42.7h-9L280.2,46L280.2,46z"/>
		<path fill="#FF4040" d="M315.4,37.7h8.9v51h-8.9V37.7z"/>
		<path fill="#FF4040" d="M395.6,37.7h8.3L431.1,73V37.7h8.9v51h-7.5l-28.1-36.3v36.3h-8.9v-51H395.6z"/>
		<path fill="#FF4040" d="M360.2,27.8l-26.6,60.9h9.2l5.2-12.3h24.1l5.2,12.3h9.5L360.2,27.8z M351.4,68.5l8.7-20.4l8.8,20.4H351.4z
			"/>
	</g>
	<g>
		<g>
			<path fill="#FF4040" d="M202.9,80l7.7-7.7c-6.2-6.2-9.6-14.5-9.6-23.2c0-8.8,3.4-17,9.6-23.2s14.5-9.6,23.2-9.6
				c8.8,0,17,3.4,23.2,9.6l7.7-7.7c-17.1-17.1-44.9-17.1-62,0S185.8,62.9,202.9,80z"/>
			<path fill="#FF4040" d="M237.8,45.1l-7.7,7.7c6.2,6.2,9.6,14.5,9.6,23.2c0,8.8-3.4,17-9.6,23.2c-6.2,6.2-14.5,9.6-23.2,9.6
				c-8.8,0-17-3.4-23.2-9.6l-7.7,7.7c17.1,17.1,44.9,17.1,62,0S254.9,62.2,237.8,45.1z"/>
		</g>
		<path fill="#FF4040" d="M256.6,0.1l-3.3,7.1c4.8,2.2,9.3,5.3,13.2,9.2s7,8.4,9.2,13.2l7.1-3.3c-2.6-5.6-6.2-10.9-10.8-15.5
			C267.5,6.3,262.2,2.6,256.6,0.1z"/>
	</g>
</g>
</svg>
