<?xml version="1.0" encoding="utf-8"?>
<!-- Generator: Adobe Illustrator 19.2.1, SVG Export Plug-In . SVG Version: 6.00 Build 0)  -->
<!DOCTYPE svg PUBLIC "-//W3C//DTD SVG 1.1//EN" "http://www.w3.org/Graphics/SVG/1.1/DTD/svg11.dtd">
<svg version="1.1" id="Layer_1" xmlns="http://www.w3.org/2000/svg" xmlns:xlink="http://www.w3.org/1999/xlink" x="0px" y="0px"
	 width="10px" height="16px" viewBox="0 0 10 16" enable-background="new 0 0 10 16" xml:space="preserve">
<g>
	<path fill="#A1ADB7" d="M1.3,10.1c0,0-0.1-0.1-0.1-0.2c0-0.1,0-0.2,0.1-0.3s0.2-0.1,0.3-0.1h6.7c0.1,0,0.2,0,0.3,0.1
		s0.1,0.2,0.1,0.3c0,0.1,0,0.1-0.1,0.2l0,0.1l-3.2,3.7C5.3,13.9,5.2,14,5,14c-0.2,0-0.3-0.1-0.4-0.2L1.3,10.1L1.3,10.1z"/>
</g>
<g>
	<path fill="#A1ADB7" d="M8.7,5.9c0,0,0.1,0.1,0.1,0.2c0,0.1,0,0.2-0.1,0.3S8.5,6.5,8.4,6.5H1.6c-0.1,0-0.2,0-0.3-0.1
		S1.2,6.2,1.2,6.1c0-0.1,0-0.1,0.1-0.2l0-0.1l3.2-3.7C4.7,2.1,4.8,2,5,2c0.2,0,0.3,0.1,0.4,0.2L8.7,5.9L8.7,5.9z"/>
</g>
</svg>
